Coordinates
nRows=4
nColumns=38

# SIMM Motion File Header:
name Coordinates
datacolumns 38
datarows 4
otherdata 1
range 0.50158000000000003000 0.50458000000000003000

Units are S.I. units (second, meters, Newtons, ...)
Angles are in degrees.

endheader
time	pelvis_tilt	pelvis_list	pelvis_rotation	pelvis_tx	pelvis_ty	pelvis_tz	hip_flexion_r	hip_adduction_r	hip_rotation_r	knee_angle_r	ankle_angle_r	subtalar_angle_r	mtp_angle_r	hip_flexion_l	hip_adduction_l	hip_rotation_l	knee_angle_l	ankle_angle_l	subtalar_angle_l	mtp_angle_l	lumbar_extension	lumbar_bending	lumbar_rotation	arm_flex_r	arm_add_r	arm_rot_r	elbow_flex_r	pro_sup_r	wrist_flex_r	wrist_dev_r	arm_flex_l	arm_add_l	arm_rot_l	elbow_flex_l	pro_sup_l	wrist_flex_l	wrist_dev_l
      0.50158000000000003000	     -1.61596251697921820000	     -0.01660685346004538500	     -3.26173538969665660000	      0.76051037889816520000	      1.01517087411531800000	     -0.36994165186727340000	    -13.03833769030458400000	      0.33759985069769949000	     -1.38578039028247080000	    -48.77988526213248800000	    -20.72213319777910100000	      0.00000000000009535648	      0.00000000000002506963	     24.28877496122215300000	      2.94768159846744290000	      0.76493618157368504000	    -16.32956415147157600000	      2.74679886275265690000	      0.00000000000002536544	     -0.00000000000005137221	     -8.75493485742413570000	     -0.43199106667091336000	     10.91644773631339800000	    -10.19347493179508600000	    -35.43989561747314800000	     24.82802914625340000000	    130.36442457720943000000	     76.12851822470933900000	     -0.00000000000000668240	     -0.00000000000000642043	    -46.04676618929808300000	    -29.34692606181970800000	     -7.44914507876005500000	    135.45408701187236000000	     98.78160330302436900000	     -0.00000000000000329941	     -0.00000000000000354187
      0.50258000000000003000	     -1.56298922808139750000	     -0.02153723073398760100	     -3.20365402346202140000	      0.76050807779654561000	      1.01484883424163820000	     -0.36994178634991476000	    -12.90406844092808400000	      0.34483409459397141000	     -1.38126254453372050000	    -49.44344116696930100000	    -20.59951785869807100000	      0.00000000000009585441	      0.00000000000002507526	     24.15423223013503300000	      2.96495870243652520000	      0.74100568391068378000	    -16.15035074075173700000	      2.70596177595664410000	      0.00000000000002547832	     -0.00000000000005156235	     -8.83236978127577470000	     -0.45501425884100527000	     10.82772486861862900000	    -10.25714452783098600000	    -35.44724671061901200000	     24.85983930269419100000	    130.34157483247458000000	     76.11178566521806500000	     -0.00000000000000674194	     -0.00000000000000640141	    -46.00749658023619300000	    -29.41849493227956500000	     -7.55186897319016200000	    135.50392714695252000000	     98.76957341318538400000	     -0.00000000000000332089	     -0.00000000000000356444
      0.50358000000000003000	     -1.50909461629291600000	     -0.02512794114417485000	     -3.14421730636665900000	      0.76050279160461831000	      1.01451814212544230000	     -0.36994259273314317000	    -12.76917548507865900000	      0.35087206279590000000	     -1.37977819540583830000	    -50.10770438482048000000	    -20.47830964474727400000	      0.00000000000009635242	      0.00000000000002508102	     24.02097240881912700000	      2.98384582842984350000	      0.71730950033221452000	    -15.98134816815784000000	      2.65812067333288790000	      0.00000000000002559084	     -0.00000000000005175225	     -8.91111434142820440000	     -0.47952121421298960000	     10.73726795208556300000	    -10.32184378499928600000	    -35.45269262269562200000	     24.88875254190419300000	    130.31594232628376000000	     76.09605266689368400000	     -0.00000000000000680127	     -0.00000000000000638412	    -45.96506454918748100000	    -29.49235053599422300000	     -7.65429290547740140000	    135.55296920034922000000	     98.75292848896069100000	     -0.00000000000000334207	     -0.00000000000000358635
      0.50458000000000003000	     -1.45427406219084830000	     -0.02740700599427899400	     -3.08338571649383790000	      0.76049460004459368000	      1.01417885136897090000	     -0.36994413108330920000	    -12.63372263730954300000	      0.35571739088989768000	     -1.38140470102482560000	    -50.77251035362164800000	    -20.35860985798332500000	      0.00000000000009685185	      0.00000000000002508775	     23.88897837100914900000	      3.00432369463690920000	      0.69389043770540615000	    -15.82258503906367300000	      2.60279137698680700000	      0.00000000000002570263	     -0.00000000000005194051	     -8.99116217119810730000	     -0.50546236860615901000	     10.64504865392336300000	    -10.38755721917744900000	    -35.45625044107186600000	     24.91479977014902000000	    130.28754433856591000000	     76.08138040338487000000	     -0.00000000000000686159	     -0.00000000000000636781	    -45.91948845128126100000	    -29.56849868194771200000	     -7.75639461298807920000	    135.60121278637592000000	     98.73159174043195200000	     -0.00000000000000336280	     -0.00000000000000360757
